<svg id="Layer_1" data-name="Layer 1" xmlns="http://www.w3.org/2000/svg" viewBox="0 0 822.43984 845.33256"><defs><style>.cls-1{fill:#231f20;stroke:#231f20;stroke-miterlimit:10;}</style></defs><title>blank</title><path class="cls-1" d="M117.98876,203.58427c41.62033,13.75592,91.37123-79.17678,119.10113-67.41574,24.88283,10.55352,11.29422,96.6097-10.11237,226.9663-40.28614,245.3247-44.57418,262.12854-32.58426,287.64044,69.483,147.84436,474.96807,139.88391,503.37078,50.56183,27.53515-86.59381-317.49112-192.53525-306.74158-384.26969,5.09464-90.87033,88.48715-172.19387,173.03369-193.25842,176.8739-44.06767,359.02252,175.53781,330.3371,243.82022-26.85242,63.91919-243.19476,6.51773-264.04492,69.66293C610.4342,497.60263,801.8728,567.88153,812.37079,705.83148c7.50134,98.57257-76.96649,174.747-86.51685,183.14606C563.74585,1031.5426,203.88147,948.95386,110.1236,768.75281c-37.80182-72.65442,3.35488-92.56061-14.60675-370.78653-7.21724-111.79535-24.9298-280.01849-17.97752-280.89887C82.177,116.48013,83.46246,192.173,117.98876,203.58427Z" transform="translate(-75.45242 -116.56401)"/></svg>