<svg id="Layer_1" data-name="Layer 1" xmlns="http://www.w3.org/2000/svg" viewBox="0 0 832.41283 884.98219"><defs><style>.cls-1{fill:#231f20;}</style></defs><title>circle</title><path class="cls-1" d="M495.51685,52.236C469.9625,52.82091,447.91,64.70226,424.909,74.46153l7.16639-3.02425c-12.7618,5.178-25.69512,9.72355-37.764,16.46882-4.36609,2.44019-8.29676,5.5137-12.68163,7.921a74.20628,74.20628,0,0,0-7.13239,4.30119c-2.56818,1.80591-4.99667,3.78516-7.4,5.79627-4.27587,3.578,5.66586-3.42994.96636-.88972-11.371,6.14636-22.6375,11.49885-32.62994,19.88983-1.98843,1.66974-3.87948,3.47284-5.72315,5.29888-2.11133,2.09115-2.15746-.32347,2.626-1.95558a26.37514,26.37514,0,0,0-2.98449,1.66183,90.06451,90.06451,0,0,0-11.854,8.43713q-1.40682,1.10127-2.806,2.21087c-.73449.583-6.82152,5.39271-2.5934,2.0902,4.10765-3.20841-.64.33675-1.28847.78453-.88654.61216-1.78292,1.20355-2.66076,1.828A52.58735,52.58735,0,0,0,293.868,159.32517c-.60507.83483-1.18693,1.66855-1.772,2.51528-3.06615,4.43772,4.40413-4.29306,1.27037-1.90787-2.44732,1.86272-4.68311,4.102-7.09861,6.03294-2.20989,1.7666-4.37731,3.55952-6.53412,5.38963-.79084.671-1.65337,1.327-2.411,2.02515,6.0699-5.59279,3.42713-2.64791,1.62828-1.26778-8.20232,6.2931-13.45843,11.24383-19.59563,19.66426-2.25607,3.09541,5.3859-5.59717,1.21132-1.79052-.80343.73262-1.57592,1.4933-2.38737,2.2175-2.03514,1.81632-4.1559,3.53758-6.20752,5.33585-4.32289,3.789-8.91319,7.289-13.1053,11.22492-8.44667,7.93054-15.472,17.42865-23.57346,25.73782-4.46924,4.58385-8.65434,9.446-13.16472,13.98528a79.46023,79.46023,0,0,0-9.32515,10.88716c-.75626,1.07694-1.473,2.16826-2.18811,3.27236-3.50634,5.41391,3.18241-3.13064.85477-.97094a59.97428,59.97428,0,0,0-15.97045,24.8218c-2.085,6.07621-2.91885,12.40245-5.2906,18.41168l3.02425-7.16639c-6.44521,15.23493-16.61843,28.45228-24.0835,43.168-7.7623,15.30162-14.25449,31.17049-21.142,46.8708-4.36631,9.95314-9.61923,19.5011-11.0817,30.385-1.30843,9.73746-.2748,19.39057-1.11176,29.13993-.71346,8.31086-1.45279,16.39627-.917,24.7585.68336,10.66466,2.15459,21.62063,3.77716,32.17292,1.33762,8.69916,3.15854,17.45275,4.9208,26.076,1.96179,9.59957,5.12617,18.89372,6.56346,28.60752l-1.07163-7.97518c1.1716,9.604,1.21122,19.50084,4.2342,28.78683,3.08132,9.46523,7.76146,18.40782,11.6307,27.56831l-3.02425-7.16639c3.91583,9.72321,7.0922,19.61716,11.67866,29.08811q6.16408,12.72871,12.71187,25.26653c4.312,8.30041,9.02959,16.44416,12.9682,24.9291,3.887,8.37372,7.70745,16.49729,12.73485,24.27013,10.201,15.77169,20.68908,32.38971,34.73965,45.03874,1.39134,1.25255,2.812,2.47184,4.15981,3.772.76442.73738,1.44932,1.57516,2.2273,2.29035,2.27618,2.09247-2.67352-2.83541-2.21689-2.86233,1.28906-.076,5.3254,10.26229,6.09757,11.54175a73.03557,73.03557,0,0,0,6.44444,8.58061,13.83348,13.83348,0,0,1,1.99387,2.29486c.12829.46653-4.06573-5.91644-2.294-2.993a149.42655,149.42655,0,0,0,10.7743,15.09474,134.306,134.306,0,0,0,17.75138,18.74916c6.62773,5.7195,12.56793,12.2217,19.28853,17.82462,7.93256,6.61331,16.53489,12.13805,24.85983,18.19893,6.69125,4.87149,13.465,9.60441,20.89048,13.30452,8.03314,4.0029,15.40464,9.23083,23.24742,13.60514,7.9351,4.42581,16.03014,8.55467,24.05413,12.8149,7.43974,3.95,14.5832,8.55739,22.15193,12.24614,9.77441,4.76373,20.14128,8.0437,30.4667,11.3578,19.80827,6.35777,39.53657,13.36521,60.1846,16.44634,22.42662,3.34652,44.5276,8.10526,67.01521,11.0696l-7.97519-1.07163c6.61514,1.0157,13.25519,2.36065,19.9496,2.64576,4.77324.20328,9.55954-.126,14.33387-.12466,11.92413.00347,23.0005.98543,34.90438-.95811,9.87132-1.61169,19.60177-4.01728,29.442-5.80549,9.62334-1.74878,19.32837-3.0338,28.975-4.64737,18.91871-3.16449,37.64975-9.02059,56.05982-14.36453a172.46351,172.46351,0,0,0,32.42945-12.5803c9.68418-5.11323,18.50529-12.02336,26.7626-19.15726a191.78558,191.78558,0,0,0,21.9098-22.08266c4.53216-5.43619,8.7874-11.10647,13.04964-16.755,4.81051-6.37512,7.65245-12.54636,10.64384-20.05956l-3.02425,7.16639c4.222-9.97863,10.07041-19.08736,16.08413-28.064,1.5-2.23906,3.04141-4.4431,4.64575-6.60866,1.52348-2.05643,4.30463-3.73763-.87367,1.07807a26.999,26.999,0,0,0,2.23575-2.814c3.37112-4.208,6.82837-8.34657,10.17774-12.57212,14.69915-18.54442,28.69986-37.98034,40.08343-58.76346,6.234-11.38147,10.86786-23.43457,15.44071-35.55175,3.95563-10.48168,7.71346-21.02773,10.06953-32.00383,2.81619-13.11965,4.054-26.71835,5.65165-40.04463a311.13716,311.13716,0,0,0,2.282-34.80626c.09737-13.12979-.43028-26.2577-1.37856-39.35182-1.12952-15.59665-4.06208-30.80044-6.253-46.24525l1.07163,7.97519c-4.06677-31.84152-10.86809-63.02715-17.7162-94.365-6.59868-30.19639-16.7594-59.29582-28.884-87.68463l3.02425,7.16639c-1.79152-4.63822-3.08529-9.44645-4.91935-14.06826-2.62622-6.61806-5.68951-13.04176-8.49889-19.57983l3.02426,7.16638Q880.18178,279.694,873.65666,264.319l3.02425,7.16639c-9.68241-24.53435-23.61719-47.57749-38.00921-69.61494-14.53246-22.25251-31.4772-41.71389-50.76494-59.87184-9.98209-9.39738-18.64482-19.393-29.68495-27.64108a323.8406,323.8406,0,0,0-28.665-19.17879c-12.05346-7.13042-25.4237-11.91364-38.86405-15.68746-11.8958-3.34013-23.65116-7.54481-35.61474-10.56406-13.16888-3.32342-26.98014-4.61349-40.38967-6.67434-16.46274-2.53008-32.97853-4.48282-49.50167-6.5381l7.97519,1.07163c-9.24347-1.264-18.35855-3.23391-27.5583-4.75893-6.222-1.03142-12.49788-2.138-18.81637-2.21868-4.24881-.05424-8.54071.47464-12.76379-.09127l7.97519,1.07163c-10.19478-1.95531-20.19746-2.17327-30.5233-1.922-12.46548.30336-24.81425,4.4158-32.902,14.4028-5.17258,6.38726-8.78679,12.676-8.78679,21.21321,0,7.358,3.26822,16.14725,8.78679,21.2132,10.94343,10.04586,31.8796,13.02353,42.42641,0,.959-1.18424,4.07733-3.78257-.31174-.53249-4.28377,3.17211-1.40108,1.09783-.18884.52744l-7.16638,3.02425a17.78344,17.78344,0,0,1,3.38052-.79876l-7.97519,1.07163a168.29776,168.29776,0,0,1,20.557-.10251l-7.97519-1.07163c6.1452.84349,12.19072,2.268,18.42566,2.11624a92.20809,92.20809,0,0,1,13.11175.28222l-7.97519-1.07163c9.54354,1.41552,18.96825,3.50885,28.50538,4.958,11.47587,1.74375,23.03641,2.80186,34.53876,4.34443l-7.97519-1.07163c10.00864,1.36755,19.98033,2.96171,29.96806,4.46936,9.73319,1.46922,19.64987,2.53032,29.20853,4.94264,9.38366,2.36814,18.48508,5.8512,27.82456,8.41972,9.22887,2.5381,18.45516,5.02817,27.33309,8.64728l-7.16639-3.02425c8.5428,3.65854,16.31214,8.58957,23.99134,13.78122,3.615,2.444,7.25606,4.85078,10.86167,7.30833,1.75489,1.19612,3.46933,2.72976,5.31826,3.75925-7.07746-3.94076-3.00011-2.38144-1.04538-.66051,6.576,5.78946,12.18135,12.74286,18.564,18.77812,6.78835,6.41886,13.70887,12.63827,20.02116,19.54107q4.54712,4.9725,8.79657,10.20564,1.13594,1.39588,2.25211,2.80764,2.92083,3.72855-1.3853-1.80239c.90869,1.77626,2.57029,3.43458,3.7465,5.05892,5.30837,7.33085,10.19543,14.93208,15.00731,22.59414,9.86082,15.7016,19.81448,31.99343,27.25577,49.01178l-3.02425-7.16639c3.0075,7.544,6.38463,14.87345,9.67547,22.28758l-3.02425-7.16639c4.30043,10.20963,8.32322,20.52074,12.76469,30.68531l-3.02425-7.16639c3.91035,9.55254,7.16886,19.30264,11.21656,28.83681l-3.02425-7.16639A433.29844,433.29844,0,0,1,864.77678,417.146c5.64183,25.71939,12.02368,51.55084,15.62562,77.65277l-1.07163-7.97519c1.78713,13.498,4.08426,26.87757,6.03205,40.3431l-1.07163-7.97519c2.45665,18.75061,3.03872,38.00735,2.80406,56.90188-.23236,18.708-2.73667,37.17763-5.19579,55.69627l1.07163-7.97518c-2.90164,19.51251-10.03969,38.42718-17.646,56.5493l3.02425-7.16639a223.93222,223.93222,0,0,1-17.94652,32.28739c-3.26475,5.014-6.81886,9.83-10.19742,14.7664-1.92393,2.811-3.8225,5.63262-5.83988,8.37846q-1.11136,1.51266-2.24774,3.007-.85068,1.123-1.71042,2.23916-2.0765,2.70243,1.86606-2.42219c-4.24674,3.72953-7.75039,9.56345-11.28995,13.98137-4.96047,6.19141-9.92207,12.433-14.38978,18.996a196.97557,196.97557,0,0,0-20.784,38.41947l3.02425-7.16639a48.62125,48.62125,0,0,1-5.88635,9.78956c-1.04077,1.404-2.11309,2.7843-3.16411,4.18063q-2.04477,2.68684,1.89463-2.44373-.84741,1.08357-1.7142,2.15164a186.50205,186.50205,0,0,1-14.95264,16.17457c-2.42131,2.365-4.88756,4.685-7.4254,6.92485q-1.90078,1.67758-3.85453,3.29474-1.30162,1.07523-2.62976,2.11754l3.38995-2.64512c-4.90626,4.8589-12.69752,8.30661-18.924,11.041l7.16639-3.02425c-10.527,4.3935-21.50809,7.36817-32.51324,10.28972-10.88637,2.89-21.64593,6.40416-32.64687,8.83735-11.02566,2.43865-22.30426,3.76445-33.44458,5.56785-11.73817,1.90018-23.27973,4.83429-35.0096,6.75855l7.97519-1.07162c-7.79278.96894-15.4937.14257-23.30121-.066-7.70688-.20587-15.433.59636-23.103-.41123l7.97518,1.07163q-10.984-1.684-22.00333-2.94431l7.97519,1.07163c-11.12514-1.5153-22.17193-4.003-33.20984-6.06137-11.26088-2.09994-22.68478-3.40966-33.84165-6.02536-10.96846-2.57152-21.63982-6.14113-32.36389-9.55633-10.95616-3.4891-22.19875-6.58519-32.84989-10.93867l7.16639,3.02425c-10.69074-4.74583-20.6842-11.28659-31.04365-16.72715-11.09594-5.82735-22.17386-11.65929-32.74372-18.4114-5.13757-3.28192-10.73828-5.6487-15.89866-8.87841-4.71332-2.94991-9.23341-6.08963-13.72272-9.363-4.614-3.36428-9.38394-6.52014-14.04838-9.81423-2.59485-1.83252-.24354-1.90973,1.99378,1.54814-.66674-1.03046-2.33109-1.97243-3.26575-2.8235-2.46249-2.24224-4.83427-4.58579-7.24575-6.88267-8.59526-8.18682-17.38034-15.54481-24.99553-24.70249-3.88157-4.6678,3.11737,4.68875,1.01,1.29329-.72514-1.16836-1.53184-2.30061-2.28449-3.45253-1.91407-2.92944-3.92642-5.6919-6.0693-8.4655-1.14634-1.48376-2.75774-4.0149-4.33812-5.33186,5.06736,4.22272,3.05959,4.74933,1.95027,2.40649-1.38358-2.92211-2.88161-5.89752-4.44122-8.73338-6.42665-11.68568-17.33381-19.10331-25.66878-29.19241a31.19331,31.19331,0,0,0-2.18478-2.7091c5.70751,5.43168,2.00086,2.58367.50116.5094q-2.29263-3.171-4.45945-6.43016c-3.63737-5.44-7.33611-10.86011-10.78787-16.42044-7.35631-11.85007-12.62233-25.02477-19.13971-37.36061-6.88419-13.03011-14.0971-26.11406-19.90165-39.66929l3.02425,7.16639c-4.96336-12.35894-9.73538-24.72456-15.00836-36.971l3.02425,7.16638a67.87372,67.87372,0,0,1-4.83073-17.01422l1.07162,7.97519c-.87064-7.70139-1.30775-15.40175-2.77-23.04421-1.094-5.71775-2.709-11.31408-4.13911-16.95236-2.74641-10.82831-4.91663-22.17177-6.59538-33.21879l1.07163,7.97519c-1.55573-12.27419-3.361-24.66008-2.85371-37.06118.23988-5.86432,1.23169-11.64881,1.328-17.52177.10638-6.49019-.55034-13.07271.31314-19.52562l-1.07163,7.97519a43.64622,43.64622,0,0,1,2.44512-7.95825l-3.02425,7.16639c9.22147-21.18813,17.98692-42.781,28.84291-63.20021,5.29854-9.96614,11.8848-19.13407,17.154-29.11582a140.3115,140.3115,0,0,0,8.53057-19.32741c1.822-5.2465,2.48437-10.79262,4.36837-16.02022l-3.02425,7.16639c.4306-.99757,1.02039-1.9867,1.42426-2.99424,1.95117-4.86753-1.06761,2.72924-1.89737,2.197.0999.06408,4.04661-4.22552,4.34-4.55429a86.85247,86.85247,0,0,0,7.524-9.89429,15.13963,15.13963,0,0,0,1.70027-2.649q-4.60528,5.48147-2.21592,2.97067.88131-.92613,1.83451-1.77921c7.0505-6.95719,13.77047-14.37593,20.5626-21.5912,6.53374-6.94077,12.15416-14.74613,19.31643-21.07849,7.02608-6.212,15.22479-11.7022,21.36576-18.82457,2.01258-2.3342,3.82333-4.84084,5.66124-7.315.72924-.98168,2.98945-3.97607.01977-.10391-3.29987,4.3027,1.64331-1.1381,2.56418-1.9957,2.69319-2.50817-5.244,3.96268-2.30187,1.71431q2.48066-1.89574,4.94844-3.80728c2.72692-2.10681,5.35212-4.23988,7.9731-6.46623,3.66117-3.1099,7.56707-5.92968,11.12647-9.15939a59.6571,59.6571,0,0,0,8.05918-9.57549c.58155-.80242,1.16633-1.60137,1.709-2.43188,1.87366-2.86758-4.70827,5.35064-1.09026,1.88709-6.45125,6.17583-1.44814,1.43528.76194-.17449,3.51015-2.55673,6.91662-5.27477,10.32111-7.97134q1.40486-1.11273,2.801-2.23964c3.92963-3.18687-1.59025,1.07891-1.8527,1.40439,1.65345-2.0505,5.17251-2.949,7.35392-4.33239a83.93979,83.93979,0,0,0,14.02266-11.69225c3.6116-3.6348-2.30577,2.1024-2.343,1.736a19.38848,19.38848,0,0,1,2.61038-1.75919c2.24549-1.42727,4.58435-2.69986,6.95183-3.91138,4.36782-2.23516,8.87143-4.219,13.08487-6.74682a100.02888,100.02888,0,0,0,11.3928-8.341c2.95084-2.39626-.69459,1.49554-2.18413,1.5844.98-.05846,2.72055-1.66078,3.57363-2.13367,9.60275-5.32308,18.46847-11.50218,28.57489-15.975l-7.16638,3.02425c12.94028-5.44013,25.93-10.62955,38.77985-16.3019l-7.16639,3.02425c10.08508-4.25291,20.922-8.99615,31.76123-10.76992l-7.97518,1.07163a84.90711,84.90711,0,0,1,8.98-.64958c15.67715-.35887,30.73717-13.54178,30-30-.71424-15.9465-13.19173-30.38476-30-30Z" transform="translate(-114.71357 -48.78265)"/></svg>