<svg id="Layer_1" data-name="Layer 1" xmlns="http://www.w3.org/2000/svg" viewBox="0 0 895.05471 958.03042"><defs><style>.cls-1{fill:#231f20;stroke:#231f20;stroke-miterlimit:10;}</style></defs><title>cross</title><path class="cls-1" d="M60.48315,102.58427C47.89513,216.8175,371.65875,310.84185,392.2355,461.73983,413.709,619.21447,94.191,764.382,103.17978,876.74158c.73227,9.15343,9.19564,81.05591,44.94382,91.01123,92.31071,25.70709,213.753-404.758,368.5393-396.62921,147.46936,7.7445,252.809,433.70786,362.92139,404.49438,24.371-6.46576,69.16344-9.06511,74.15729-35.95508,14.60673-78.65166-340.44945-304.49436-339.32585-453.93256C615.77109,305.467,959.46857,221.03526,930.14606,92.47191c-6.34986-27.84071-31.059-53.82629-58.42694-60.67416C752.1037,1.86815,651.75824,355.04727,496.4382,349.77527,345.26648,344.64407,282.09207,4.70764,148.1236,20.5618,106.63857,25.47124,64.76356,63.74055,60.48315,102.58427Z" transform="translate(-59.62551 -19.52405)"/></svg>